<?xml version="1.0" standalone="no"?>
<!DOCTYPE svg PUBLIC "-//W3C//DTD SVG 20010904//EN"
 "http://www.w3.org/TR/2001/REC-SVG-20010904/DTD/svg10.dtd">
<svg version="1.0" xmlns="http://www.w3.org/2000/svg"
 width="300.000000pt" height="300.000000pt" viewBox="0 0 300.000000 300.000000"
 preserveAspectRatio="xMidYMid meet">
<metadata>
Created by potrace 1.14, written by Peter Selinger 2001-2017
</metadata>
<g transform="translate(0.000000,300.000000) scale(0.100000,-0.100000)"
fill="#000000" stroke="none">
<path d="M890 2582 c-47 -23 -80 -75 -80 -124 0 -92 61 -151 157 -151 59 0 90
16 127 67 29 38 28 121 -2 163 -42 60 -133 80 -202 45z"/>
<path d="M420 2015 l0 -85 230 0 230 0 0 -458 c0 -391 -2 -466 -16 -512 -20
-67 -65 -114 -125 -130 -61 -17 -191 -8 -263 18 -33 12 -61 21 -62 19 -1 -1
-16 -35 -33 -75 l-31 -73 45 -20 c139 -62 380 -63 496 -4 57 30 125 103 152
163 41 91 47 185 47 734 l0 508 -335 0 -335 0 0 -85z"/>
<path d="M1590 2094 c0 -4 104 -232 230 -507 l231 -500 -43 -86 c-66 -132
-143 -179 -275 -168 l-63 5 -11 -42 c-5 -22 -14 -57 -19 -76 -11 -40 -5 -46
59 -56 144 -22 299 30 386 129 67 76 103 156 341 747 119 294 218 541 221 548
4 9 -19 12 -95 12 l-99 0 -92 -240 c-88 -229 -211 -567 -211 -579 0 -21 -28
38 -89 189 -39 96 -114 276 -168 400 l-98 225 -103 3 c-56 1 -102 0 -102 -4z"/>
</g>
</svg>
